<svg role="img" viewBox="0 0 24 24" xmlns="http://www.w3.org/2000/svg" id="Volkswagen--Streamline-Simple-Icons" height="24" width="24"><desc>Volkswagen Streamline Icon: https://streamlinehq.com</desc><title>Volkswagen</title><path d="M12 0C5.36 0 0 5.36 0 12s5.36 12 12 12 12 -5.36 12 -12S18.64 0 12 0m0 1.41c1.2 0 2.36 0.22 3.43 0.59l-3.3 7.13c-0.04 0.04 -0.04 0.13 -0.13 0.13s-0.09 -0.09 -0.13 -0.13L8.57 2c1.07 -0.37 2.23 -0.58 3.43 -0.58M6.9 2.74l3.82 8.23c0.08 0.17 0.17 0.22 0.28 0.22h2c0.12 0 0.2 -0.05 0.29 -0.22l3.77 -8.23c1.58 0.9 2.94 2.19 3.9 3.73L15.6 16.84c-0.04 0.09 -0.1 0.13 -0.13 0.13 -0.08 0 -0.08 -0.08 -0.13 -0.13l-2.05 -4.54c-0.09 -0.17 -0.17 -0.21 -0.29 -0.21h-2c-0.11 0 -0.2 0.04 -0.29 0.21l-2.05 4.54c-0.05 0.05 -0.04 0.13 -0.13 0.13s-0.09 -0.08 -0.13 -0.13L3 6.47c0.94 -1.54 2.32 -2.83 3.9 -3.73M2.06 8.53l6.17 12c0.08 0.17 0.17 0.3 0.39 0.3 0.21 0 0.29 -0.13 0.38 -0.3l2.87 -6.39c0.04 -0.08 0.09 -0.14 0.13 -0.14 0.09 0 0.09 0.1 0.13 0.14l2.91 6.39c0.09 0.17 0.17 0.3 0.39 0.3 0.21 0 0.3 -0.13 0.38 -0.3l6.19 -12c0.37 1.07 0.59 2.23 0.59 3.47 -0.05 5.79 -4.8 10.59 -10.59 10.59S1.46 17.79 1.46 12c0 -1.2 0.21 -2.35 0.6 -3.47Z" fill="#000000" stroke-width="1"/></svg>