<svg xmlns="http://www.w3.org/2000/svg" width="24" height="24"><path d="M12 8.24C5.87 8.24.9 9.93.9 12s4.97 3.77 11.1 3.77 11.1-1.7 11.1-3.77c0-2.07-4.97-3.76-11.1-3.76zm-5.7 6.24c-.65 0-1.23-.4-1.3-1.1a1.42 1.42 0 0 1 .3-1.03c.2-.25.52-.46.8-.51.09-.02.21 0 .26.05.08.1.06.2-.02.24-.21.1-.47.3-.6.55a.68.68 0 0 0 .04.7c.26.39 1 .4 1.68-.23.17-.16.32-.3.47-.48a10.97 10.97 0 0 0 .8-1.04c0-.01 0-.02-.02-.02-.26.01-.5.1-.72.26-.07.05-.16.04-.2-.02-.05-.07-.01-.16.06-.22.36-.25.76-.3 1.17-.36 0 0 .03 0 .05-.03.17-.22.29-.4.47-.62.18-.22.4-.42.58-.58.25-.2.4-.28.57-.37.04-.02 0-.04-.02-.04-.9-.17-1.83-.4-2.72-.06-.61.23-.88.72-.75 1.04.09.24.4.27.68.13a1.55 1.55 0 0 0 .61-.54c.09-.13.27-.04.17.2-.26.6-.76 1.1-1.36 1.11-.52.02-.85-.36-.85-.83 0-.92 1.03-1.53 2.11-1.62 1.3-.1 2.53.24 3.83.4a8.3 8.3 0 0 0 2.93-.11c.12-.03.2.05.19.17-.01.17-.14.33-.47.51-.37.2-.76.27-1.17.27-.98.01-1.9-.37-2.85-.58 0 .04.01.1-.02.12-.53.39-1 .78-1.32 1.33-.01.02 0 .03.01.03l.79-.05c.04 0 .04-.01.04-.04a.64.64 0 0 1 .2-.56c.17-.15.38-.17.53-.06.16.12.14.35.06.52a.63.63 0 0 1-.39.31s-.03 0-.02.04c0 .04.2.15.21.18.02.02.01.07-.02.1a.12.12 0 0 1-.1.04l-.09-.03a.92.92 0 0 1-.27-.22c-.02-.03-.03-.03-.1-.03-.28.02-.71.06-1 .1-.08 0-.09.02-.1.04-.47.78-.97 1.61-1.52 2.17-.6.6-1.09.76-1.6.77zm12.75-3.77c-.1.16-1.85 2.83-1.96 3.11-.04.09-.04.15 0 .2.09.13.3.06.42-.03.38-.27.65-.58.94-.86.02-.02.04-.02.06 0l.15.13a.04.04 0 0 1 0 .06 5.87 5.87 0 0 1-.9.91c-.47.37-.94.46-1.17.23a.5.5 0 0 1-.14-.32c0-.06-.03-.06-.06-.03-.28.27-.76.58-1.2.36-.36-.18-.45-.62-.38-.99 0 0 0-.06-.05-.03a1.28 1.28 0 0 1-.3.17.85.85 0 0 1-.37.07.52.52 0 0 1-.45-.25.76.76 0 0 1-.1-.35s-.01-.03-.03 0c-.3.45-.58.9-.87 1.36-.02.02-.03.04-.06.04h-.59c-.03 0-.05-.03-.03-.07.1-.2.67-1.03 1.06-1.73.1-.2.08-.3.02-.34-.09-.05-.25.03-.39.13-.38.3-.7.74-.86.94-.1.12-.18.3-.43.56-.4.42-.91.67-1.41.5a.85.85 0 0 1-.55-.58c-.01-.05-.04-.07-.07-.03a2 2 0 0 1-.38.34c-.02.01-.05.03-.09.02a.85.85 0 0 1-.15-.2.07.07 0 0 1 .02-.08c.2-.17.3-.27.39-.38.06-.08.11-.17.17-.32.12-.3.4-.86.94-1.15a1.81 1.81 0 0 1 .65-.22c.1-.01.18 0 .21.08l.06.15c0 .04 0 .06-.04.08a1.9 1.9 0 0 0-.86.6c-.26.34-.32.75-.15.99.12.17.32.2.51.13.29-.09.54-.36.67-.66.13-.33.16-.72.05-1.06-.01-.06 0-.1.04-.13.08-.07.18-.12.22-.13a.14.14 0 0 1 .18.04c.1.16.16.38.17.61 0 .05.02.05.05.03.19-.2.36-.42.57-.58.18-.15.42-.27.64-.27.28 0 .43.2.42.55 0 .04.03.04.05.01a1.19 1.19 0 0 1 .24-.26c.2-.17.4-.24.61-.23.26.02.47.26.42.53a.53.53 0 0 1-.28.4.36.36 0 0 1-.4-.04.34.34 0 0 1-.1-.32c0-.02-.02-.05-.05-.02-.25.26-.27.6-.1.76.18.17.45.06.65-.07.37-.24.65-.57.98-.82.22-.16.47-.31.74-.35a.87.87 0 0 1 .46.05c.2.09.32.25.34.4 0 .04.04.05.06.01l1.08-1.65c.02-.04.04-.05.09-.05h.6c.04 0 .05.02.04.05zm-2.32 2.2a.05.05 0 0 0 0 .04c0 .02.03.04.05.05.01 0 .02.01 0 .04-.07.16-.14.25-.23.39a1.47 1.47 0 0 1-.3.32c-.18.15-.42.3-.63.2-.09-.04-.13-.17-.12-.27 0-.3.13-.59.36-.88.3-.35.61-.54.82-.44.22.1.15.36.05.55zm-5.95-1.88a.4.4 0 0 1 .13-.34c.06-.05.14-.06.18-.02.06.04.03.15-.02.23a.43.43 0 0 1-.25.18c-.02 0-.03 0-.04-.05zM12 7.5c-6.66 0-12 2-12 4.5 0 2.49 5.38 4.5 12 4.5s12-2.02 12-4.5-5.38-4.5-12-4.5zm0 8.6C5.65 16.1.5 14.28.5 12 .5 9.73 5.65 7.9 12 7.9S23.5 9.72 23.5 12c0 2.27-5.15 4.1-11.5 4.1z"/></svg>