<svg role="img" viewBox="0 0 24 24" xmlns="http://www.w3.org/2000/svg" id="Hyundai--Streamline-Simple-Icons" height="24" width="24"><desc>Hyundai Streamline Icon: https://streamlinehq.com</desc><title>Hyundai</title><path d="M12 18.1622c-6.6275 0 -12 -2.7586 -12 -6.163 0 -3.4028 5.3725 -6.1614 12 -6.1614 6.6278 0 12 2.7586 12 6.1614 0 3.4044 -5.3722 6.163 -12 6.163zM7.6023 7.17C3.701 7.9784 0.973 9.8302 0.973 11.9844c0 1.1929 0.8382 2.2932 2.248 3.1757 0.1174 0.0724 0.1941 0.0862 0.251 0.0826 0.1019 -0.006 0.1593 -0.0698 0.201 -0.146 0.028 -0.0485 0.0631 -0.1225 0.0972 -0.1968 0.4601 -1.0834 2.0776 -4.8333 4.2023 -7.3758a1.1775 1.1775 0 0 0 0.1048 -0.1461c0.046 -0.084 0.0356 -0.1513 0.0006 -0.192 -0.0593 -0.0647 -0.2247 -0.065 -0.4756 -0.016zM9.742 8.8995c-1.1728 2.8492 1.0473 2.4961 1.6478 2.3637 1.0203 -0.2258 1.9944 -0.6128 2.7746 -0.925 2.2216 -0.8887 3.4012 -1.7804 3.7925 -2.123a1.9839 1.9839 0 0 0 0.1076 -0.0988c0.0557 -0.058 0.0976 -0.1192 0.0976 -0.2002 0 -0.0936 -0.081 -0.1687 -0.2374 -0.2231 -0.012 -0.0049 -0.0517 -0.021 -0.0641 -0.025 -1.698 -0.5415 -3.724 -0.8563 -5.9016 -0.8563 -0.0168 0 -0.0586 -0.0022 -0.1169 0 -0.2608 0.0078 -0.5509 0.0664 -0.787 0.1888 -0.7777 0.4049 -1.1163 1.4235 -1.313 1.899zm10.5851 0.0037c-0.0268 0.0487 -0.0612 0.1224 -0.0962 0.1974 -0.4599 1.0826 -2.0774 4.831 -4.2018 7.3733 -0.0515 0.063 -0.0796 0.1031 -0.1042 0.1467 -0.0492 0.0846 -0.0388 0.1535 0 0.1935 0.0572 0.0641 0.2235 0.0654 0.474 0.0157 3.8998 -0.81 6.628 -2.6606 6.628 -4.8149 0 -1.1925 -0.836 -2.2928 -2.2472 -3.1745 -0.1161 -0.073 -0.1934 -0.0871 -0.25 -0.083 -0.1028 0.0067 -0.16 0.0699 -0.2026 0.1458zM14.258 15.099c1.173 -2.849 -1.0483 -2.494 -1.6467 -2.3622 -1.0218 0.225 -1.996 0.613 -2.7757 0.924 -2.2226 0.8883 -3.4017 1.782 -3.7944 2.1234 -0.0468 0.0428 -0.0833 0.0742 -0.1066 0.0995 -0.0564 0.0573 -0.0967 0.1178 -0.0967 0.2007 0 0.0923 0.08 0.1688 0.2362 0.2229 0.012 0.0048 0.0511 0.0213 0.0657 0.0255 1.696 0.54 3.722 0.8557 5.9 0.8557 0.0177 0 0.0592 0.0016 0.1178 0 0.2609 -0.0081 0.5522 -0.0677 0.7871 -0.1888 0.7781 -0.4052 1.1169 -1.4234 1.3133 -1.9007z" fill="#000000" stroke-width="1"/></svg>