<svg role="img" viewBox="0 0 24 24" xmlns="http://www.w3.org/2000/svg" id="Nissan--Streamline-Simple-Icons" height="24" width="24"><desc>Nissan Streamline Icon: https://streamlinehq.com</desc><title>Nissan</title><path d="m20.576 14.955 -0.01 0.028c-1.247 3.643 -4.685 6.086 -8.561 6.086 -3.876 0 -7.32 -2.448 -8.562 -6.09l-0.01 -0.029H0.71v0.329l1.133 0.133c0.7 0.08 0.847 0.39 1.038 0.78l0.048 0.096c1.638 3.495 5.204 5.752 9.08 5.752 3.877 0 7.443 -2.257 9.081 -5.747l0.048 -0.095c0.19 -0.39 0.338 -0.7 1.038 -0.781l1.134 -0.134v-0.328zM3.443 9.012c1.247 -3.643 4.686 -6.09 8.562 -6.09 3.876 0 7.319 2.447 8.562 6.09l0.01 0.028h2.728v-0.328l-1.134 -0.133c-0.7 -0.081 -0.847 -0.39 -1.038 -0.781l-0.047 -0.096C19.448 4.217 15.88 1.96 12.005 1.96c-3.881 0 -7.443 2.257 -9.081 5.752l-0.048 0.095c-0.19 0.39 -0.338 0.7 -1.038 0.781l-1.133 0.133v0.329h2.724zm13.862 1.586 -1.743 2.795h0.752l0.31 -0.5h2.033l0.31 0.5h0.747l-1.743 -2.795zm1.033 1.766h-1.395l0.7 -1.124zm2.81 -1.066 2.071 2.095H24v-2.795h-0.614v2.085l-2.062 -2.085h-0.795v2.795h0.619zM0 13.393h0.619v-2.095l2.076 2.095h0.781v-2.795h-0.619v2.085L0.795 10.598H0zm4.843 -2.795h0.619v2.795h-0.62zm4.486 2.204c-0.02 0.005 -0.096 0.005 -0.124 0.005H6.743v0.572h2.5c0.019 0 0.167 0 0.195 -0.005 0.51 -0.048 0.743 -0.472 0.743 -0.843 0 -0.381 -0.243 -0.79 -0.705 -0.833 -0.09 -0.01 -0.166 -0.01 -0.2 -0.01H7.643a0.83 0.83 0 0 1 -0.181 -0.014c-0.129 -0.034 -0.176 -0.148 -0.176 -0.243 0 -0.086 0.047 -0.2 0.18 -0.238a0.68 0.68 0 0 1 0.172 -0.014h2.357v-0.562H7.6c-0.1 0 -0.176 0.004 -0.238 0.014a0.792 0.792 0 0 0 -0.695 0.805c0 0.343 0.214 0.743 0.685 0.81 0.086 0.009 0.205 0.009 0.258 0.009H9.2c0.029 0 0.1 0 0.114 0.005 0.181 0.023 0.243 0.157 0.243 0.276a0.262 0.262 0 0 1 -0.228 0.266zm4.657 0c-0.02 0.005 -0.096 0.005 -0.129 0.005H11.4v0.572h2.5c0.019 0 0.167 0 0.195 -0.005 0.51 -0.048 0.743 -0.472 0.743 -0.843 0 -0.381 -0.243 -0.79 -0.705 -0.833 -0.09 -0.01 -0.166 -0.01 -0.2 -0.01H12.3a0.83 0.83 0 0 1 -0.181 -0.014c-0.129 -0.034 -0.176 -0.148 -0.176 -0.243 0 -0.086 0.047 -0.2 0.18 -0.238a0.68 0.68 0 0 1 0.172 -0.014h2.357v-0.562h-2.395c-0.1 0 -0.176 0.004 -0.238 0.014a0.792 0.792 0 0 0 -0.695 0.805c0 0.343 0.214 0.743 0.686 0.81 0.085 0.009 0.204 0.009 0.257 0.009h1.59c0.029 0 0.1 0 0.114 0.005 0.181 0.023 0.243 0.157 0.243 0.276a0.267 0.267 0 0 1 -0.228 0.266Z" fill="#000000" stroke-width="1"/></svg>