<svg role="img" viewBox="0 0 24 24" xmlns="http://www.w3.org/2000/svg" id="Skoda--Streamline-Simple-Icons" height="24" width="24"><desc>Skoda Streamline Icon: https://streamlinehq.com</desc><title>ŠKODA</title><path d="M12 0C5.3726 0 0 5.3726 0 12s5.3726 12 12 12 12 -5.3726 12 -12S18.6274 0 12 0Zm0 22.9636C5.945 22.9636 1.0364 18.055 1.0364 12S5.945 1.0364 12 1.0364 22.9636 5.945 22.9636 12 18.055 22.9636 12 22.9636Zm5.189 -7.2325 -0.269 0.7263h-0.984c0.263 -0.7089 3.5783 -8.6177 -2.9362 -13.9819a9.5254 9.5254 0 0 0 -4.0531 0.4483c0.2172 0.175 2.474 2.0276 3.5373 4.315l-0.312 0.084c-0.5861 -0.6387 -2.7156 -2.9833 -4.7448 -3.7379a9.6184 9.6184 0 0 0 -2.8448 2.3597c0.953 0.4875 3.4432 1.9748 4.3896 3.1302 -0.0542 0.0244 -0.267 0.139 -0.267 0.139 -1.736 -1.3195 -4.8199 -2.0043 -4.9775 -2.0383a9.5126 9.5126 0 0 0 -1.2267 3.6098c4.7759 0.9613 6.0618 3.1715 6.2818 5.6721H7.878l-1.5545 -0.6776a0.8563 0.8563 0 0 0 -0.2524 -0.0531H3.1767a9.587 9.587 0 0 0 1.9267 2.9155h1.2334c0.1063 0 0.1993 -0.0133 0.2923 -0.0664l1.2489 -0.6378h9.042l0.269 0.7264a4.8386 4.8386 0 0 0 2.9466 -1.4667 4.839 4.839 0 0 0 -2.9467 -1.4666zm-4.14 -0.5786a1.1863 1.1863 0 0 1 -0.5038 -1.2162 1.1862 1.1862 0 0 1 0.931 -0.9309 1.1863 1.1863 0 0 1 1.2161 0.5038c0.3098 0.4636 0.2563 1.0924 -0.1473 1.496 -0.4032 0.4032 -1.0318 0.4574 -1.496 0.1473z" fill="#000000" stroke-width="1"/></svg>