<svg role="img" viewBox="0 0 24 24" xmlns="http://www.w3.org/2000/svg" id="Volvo--Streamline-Simple-Icons" height="24" width="24"><desc>Volvo Streamline Icon: https://streamlinehq.com</desc><title>Volvo</title><path d="M10.873 12.584h0.49l-0.001 -1.452h-0.489v-0.322h1.94v0.322h-0.483v1.451h0.449c0.415 0 0.687 -0.274 0.687 -0.646h0.32v0.972h-2.913v-0.325zm4.313 0.327h1.134l0.962 -1.779h0.482v-0.322h-1.45v0.322h0.419l-0.701 1.295 -0.71 -1.295h0.51l-0.002 -0.322h-2.104v0.322h0.482l0.978 1.779zM5.073 10.81H2.968v0.322h0.481l0.98 1.779h1.133l0.962 -1.779h0.482v-0.322h-1.45v0.322h0.418l-0.7 1.295 -0.71 -1.295h0.509v-0.322zm3.707 -0.044c0.975 0 1.498 0.486 1.498 1.096 0 0.618 -0.494 1.111 -1.493 1.111 -0.999 0 -1.497 -0.493 -1.497 -1.111 0 -0.61 0.517 -1.096 1.492 -1.096zm0.017 0.33c-0.333 -0.005 -0.527 0.348 -0.534 0.753 -0.006 0.39 0.15 0.784 0.506 0.79 0.366 0.007 0.524 -0.39 0.53 -0.772 0.008 -0.405 -0.168 -0.764 -0.502 -0.77zm10.738 -0.33c0.974 0 1.497 0.486 1.497 1.096 0 0.618 -0.493 1.111 -1.492 1.111 -1 0 -1.498 -0.493 -1.498 -1.111 0 -0.61 0.518 -1.096 1.493 -1.096zm-0.517 1.083c-0.007 0.39 0.15 0.784 0.506 0.79 0.366 0.007 0.524 -0.39 0.53 -0.772 0.008 -0.405 -0.168 -0.764 -0.502 -0.77 -0.333 -0.006 -0.527 0.347 -0.534 0.752zm2.857 -6.667L20.656 6.4a10.26 10.26 0 0 1 1.652 5.6c0 5.693 -4.615 10.308 -10.308 10.308S1.692 17.693 1.692 12 6.307 1.692 12 1.692c2.07 0 3.996 0.61 5.611 1.66l1.219 -1.219A11.944 11.944 0 0 0 12 0C5.373 0 0 5.373 0 12s5.373 12 12 12 12 -5.373 12 -12c0 -2.533 -0.785 -4.882 -2.125 -6.818zM18.036 0.472v0.337c0.728 0.394 1.413 0.859 2.047 1.382l-1.71 1.71a10.29 10.29 0 0 1 1.735 1.732l1.708 -1.708c0.524 0.636 0.989 1.322 1.384 2.038h0.328V0.473h-5.492z" fill="#000000" stroke-width="1"/></svg>