<svg role="img" viewBox="0 0 24 24" xmlns="http://www.w3.org/2000/svg" id="Lada--Streamline-Simple-Icons" height="24" width="24">
  <desc>
    Lada Streamline Icon: https://streamlinehq.com
  </desc>
  <title>LADA</title>
  <path d="M11.998 7.312c-5.908 0 -10.82 1.669 -11.81 3.866a1.974 1.974 0 0 0 -0.188 0.831c0 0.193 0.028 0.508 0.227 0.895 1.078 2.156 5.94 3.784 11.775 3.784C18.629 16.688 24 14.588 24 12c0 -2.589 -5.375 -4.688 -12.002 -4.688Zm-0.89 0.993c0.42 0.383 0.16 1.217 -0.642 2.368 -0.894 1.276 -1.752 1.976 -2.771 2.233L9.91 8.084h0.01c0.566 -0.025 0.949 0.005 1.188 0.22zm5.027 4.7c-0.065 -0.04 -0.045 -0.139 0.03 -0.154l1 -0.201a0.07 0.07 0 0 0 0.052 -0.047l0.16 -0.474c0.015 -0.044 -0.018 -0.087 -0.063 -0.09l-1.866 -0.103a0.305 0.305 0 0 0 -0.18 0.048l-0.748 0.496a0.385 0.385 0 0 0 -0.17 0.394c0.209 1.09 -0.202 1.684 -2.354 1.942 -3.127 0.373 -5.461 0 -5.868 -0.074a0.218 0.218 0 0 0 -0.234 0.121l-0.213 0.463c-2.209 -0.657 -3.742 -1.653 -4.112 -2.793 0 -0.036 -0.081 -0.226 -0.081 -0.535 0 -1.893 3.186 -3.49 7.544 -3.992h0.016s-2.232 4.863 -2.612 5.688a0.088 0.088 0 0 0 0.08 0.122h0.124c1.31 0.044 2.892 0.091 4.87 -0.396 2.102 -0.518 3.688 -2.005 4.296 -3.087 0.616 -1.099 0.263 -1.943 0.195 -2.232 3.878 0.596 6.359 2.095 6.413 3.84 -0.014 0.356 -0.11 0.704 -0.283 1.019 -0.728 1.214 -2.796 2.22 -5.55 2.76 1.084 -1.188 0.236 -2.27 -0.446 -2.712z" fill="#000000" stroke-width="1"></path>
</svg>