<svg role="img" viewBox="0 0 24 24" xmlns="http://www.w3.org/2000/svg" id="Audi--Streamline-Simple-Icons" height="24" width="24">
  <desc>
    Audi Streamline Icon: https://streamlinehq.com
  </desc>
  <title>Audi</title>
  <path d="M19.848 7.848c-0.992 0 -1.902 0.348 -2.616 0.928 -0.714 -0.58 -1.624 -0.928 -2.616 -0.928s-1.902 0.348 -2.616 0.928c-0.714 -0.58 -1.624 -0.928 -2.616 -0.928s-1.902 0.348 -2.616 0.928c-0.714 -0.58 -1.624 -0.928 -2.616 -0.928C1.859 7.848 0 9.707 0 12s1.859 4.152 4.152 4.152c0.992 0 1.902 -0.348 2.616 -0.928 0.714 0.58 1.624 0.928 2.616 0.928s1.902 -0.348 2.616 -0.928c0.714 0.58 1.624 0.928 2.616 0.928s1.902 -0.348 2.616 -0.928c0.714 0.58 1.624 0.928 2.616 0.928C22.141 16.152 24 14.293 24 12s-1.859 -4.152 -4.152 -4.152zm-2.616 6.018c-0.376 -0.526 -0.598 -1.17 -0.598 -1.866 0 -0.696 0.222 -1.34 0.598 -1.866 0.376 0.526 0.598 1.17 0.598 1.866 0 0.696 -0.222 1.34 -0.598 1.866zm-5.232 0c-0.376 -0.526 -0.598 -1.17 -0.598 -1.866 0 -0.696 0.222 -1.34 0.598 -1.866 0.376 0.526 0.598 1.17 0.598 1.866 0 0.696 -0.222 1.34 -0.598 1.866zm-5.232 0c-0.376 -0.526 -0.598 -1.17 -0.598 -1.866 0 -0.696 0.222 -1.34 0.598 -1.866 0.376 0.526 0.598 1.17 0.598 1.866 0 0.696 -0.222 1.34 -0.598 1.866zM0.938 12c0 -1.775 1.439 -3.214 3.214 -3.214 0.736 0 1.414 0.248 1.956 0.665 -0.548 0.703 -0.876 1.588 -0.876 2.549 0 0.961 0.328 1.846 0.876 2.549 -0.542 0.416 -1.22 0.665 -1.956 0.665C2.377 15.214 0.938 13.775 0.938 12zm6.49 2.549c0.548 -0.703 0.876 -1.588 0.876 -2.549 0 -0.961 -0.328 -1.846 -0.876 -2.549 0.542 -0.416 1.22 -0.665 1.956 -0.665s1.414 0.248 1.956 0.665c-0.549 0.704 -0.876 1.588 -0.876 2.549 0 0.961 0.328 1.846 0.876 2.549 -0.542 0.416 -1.22 0.665 -1.956 0.665s-1.414 -0.248 -1.956 -0.665zm5.232 0c0.549 -0.704 0.876 -1.588 0.876 -2.549 0 -0.961 -0.328 -1.846 -0.876 -2.55 0.542 -0.416 1.22 -0.665 1.956 -0.665s1.414 0.248 1.956 0.665c-0.549 0.704 -0.876 1.588 -0.876 2.549 0 0.961 0.328 1.846 0.876 2.549 -0.542 0.416 -1.22 0.665 -1.956 0.665 -0.736 0.001 -1.414 -0.247 -1.956 -0.664zm7.188 0.665c-0.736 0 -1.414 -0.248 -1.956 -0.665 0.548 -0.704 0.876 -1.588 0.876 -2.549 0 -0.961 -0.328 -1.846 -0.876 -2.549 0.542 -0.416 1.22 -0.665 1.956 -0.665 1.775 0 3.214 1.439 3.214 3.214s-1.439 3.214 -3.214 3.214z" fill="#000000" stroke-width="1"></path>
</svg>